<?xml version="1.0" standalone="no"?>
<!DOCTYPE svg PUBLIC "-//W3C//DTD SVG 1.1//EN" "http://www.w3.org/Graphics/SVG/1.1/DTD/svg11.dtd" >
<svg xmlns="http://www.w3.org/2000/svg">
<metadata>
Created by FontForge 20120731 at Fri Jun 23 18:11:17 2017
 By admin
</metadata>
<defs>
<font id="iconfont" horiz-adv-x="1024" >
  <font-face 
    font-family="iconfont"
    font-weight="500"
    font-stretch="normal"
    units-per-em="1024"
    panose-1="2 0 6 3 0 0 0 0 0 0"
    ascent="896"
    descent="-128"
    x-height="792"
    bbox="-0.37037 -212 6144 896"
    underline-thickness="0"
    underline-position="0"
    unicode-range="U+0078-E7BD"
  />
<missing-glyph 
 />
    <glyph glyph-name=".notdef" 
 />
    <glyph glyph-name=".notdef" 
 />
    <glyph glyph-name=".null" horiz-adv-x="0" 
 />
    <glyph glyph-name="nonmarkingreturn" horiz-adv-x="341" 
 />
    <glyph glyph-name="x" unicode="x" horiz-adv-x="1001" 
d="M281 543q-27 -1 -53 -1h-83q-18 0 -36.5 -6t-32.5 -18.5t-23 -32t-9 -45.5v-76h912v41q0 16 -0.5 30t-0.5 18q0 13 -5 29t-17 29.5t-31.5 22.5t-49.5 9h-133v-97h-438v97zM955 310v-52q0 -23 0.5 -52t0.5 -58t-10.5 -47.5t-26 -30t-33 -16t-31.5 -4.5q-14 -1 -29.5 -0.5
t-29.5 0.5h-32l-45 128h-439l-44 -128h-29h-34q-20 0 -45 1q-25 0 -41 9.5t-25.5 23t-13.5 29.5t-4 30v167h911zM163 247q-12 0 -21 -8.5t-9 -21.5t9 -21.5t21 -8.5q13 0 22 8.5t9 21.5t-9 21.5t-22 8.5zM316 123q-8 -26 -14 -48q-5 -19 -10.5 -37t-7.5 -25t-3 -15t1 -14.5
t9.5 -10.5t21.5 -4h37h67h81h80h64h36q23 0 34 12t2 38q-5 13 -9.5 30.5t-9.5 34.5q-5 19 -11 39h-368zM336 498v228q0 11 2.5 23t10 21.5t20.5 15.5t34 6h188q31 0 51.5 -14.5t20.5 -52.5v-227h-327z" />
    <glyph glyph-name="shezhi" unicode="&#xe603;" horiz-adv-x="1000" 
d="M915 193h85v214h-85q-64 0 -77.5 32.5t31.5 78.5l60 60l-151 151l-60 -60q-46 -45 -78.5 -31.5t-32.5 77.5v0.5v0.5v84h-214v-85q0 -65 -32.5 -78t-78.5 32l-60 60l-151 -151l60 -60q45 -46 31.5 -78.5t-77.5 -32.5h-85v-214h85q64 0 77.5 -32.5t-31.5 -78.5l-60 -60
l151 -151l60 60q46 45 78.5 32t32.5 -78v-85h214v84v1v0q0 64 32.5 77.5t78.5 -31.5l60 -60l151 151l-60 60q-45 46 -31.5 78.5t77.5 32.5zM500 112q-78 0 -133 55t-55 133t55 133t133 55t133 -55t55 -133t-55 -133t-133 -55z" />
    <glyph glyph-name="home" unicode="&#xe611;" 
d="M885 221l-373 289l-373 -289v118l373 289l373 -289v-118zM792 231v-280h-186v187h-187v-187h-186v280l279 210z" />
    <glyph glyph-name="config1" unicode="&#xe619;" 
d="M958 389h-36v1l-24 -1q-30 -8 -52 14q-16 17 -16 40t16 39q5 5 10 8l3 4l1 -1l39 39q10 10 8 25t-14 27l-85 85q-14 14 -31 14v0l-13 -1l-47 -46v-1l-3 -3q-16 -26 -47 -26q-24 0 -40 16t-16 40q0 5 1 12v5h1v55q0 14 -11.5 23.5t-29.5 9.5h-120q-18 0 -29.5 -9.5
t-11.5 -23.5v-55v0v-5q8 -30 -14 -52q-16 -16 -40 -16t-39 16q-5 4 -8 10l-3 3v1l-39 38l-10 9h-11v0q-17 0 -31 -14l-85 -85q-12 -12 -14 -27t8 -25l39 -39h1l3 -3q26 -16 26 -48q0 -26 -20 -43t-48 -11h-5v1h-55q-14 0 -23.5 -11.5t-9.5 -29.5v-120q0 -18 9.5 -29.5
t23.5 -11.5h55v1l5 -1q30 8 52 -14q16 -17 16 -40t-16 -39q-4 -5 -10 -8l-3 -3h-1l-39 -39q-10 -10 -8 -24.5t14 -27.5l85 -85q14 -14 31 -14q12 0 21 8l39 39v1l3 3q16 26 47 26q24 0 40 -16t16 -39q0 -7 -1 -13v-5h-1v-55q0 -14 11.5 -23.5t29.5 -9.5h120q18 0 29.5 9.5
t11.5 23.5v55h-1l1 5q-8 30 14 52q16 16 40 16t39 -16q5 -4 8 -10l4 -3l-1 -1l39 -39q9 -8 21 -8q17 0 31 14l85 85q12 13 14 27.5t-8 24.5l-39 39h-1l-3 3q-26 16 -26 48q0 26 21 43t47 11h5v-1h55q14 0 23.5 11.5t9.5 29.5v120q0 18 -9.5 29.5t-23.5 11.5zM939 238h-36v0
q-10 2 -17 2q-45 0 -76 -31t-31 -75q0 -55 45 -87h-1l26 -26l-70 -70l-26 26v0q-6 8 -11 13q-30 30 -75 30t-76 -30q-38 -38 -29 -93v0v-36h-100v36v0q2 11 2 18q0 44 -31 75t-75 31q-55 0 -87 -45v1l-26 -26l-70 70l26 26v0q8 6 13 11q31 31 31 75t-31 76q-38 38 -93 29v0
h-36v100h36v0q10 -2 17 -2q45 0 76 31.5t31 75.5q0 54 -45 86h1l-26 26l70 70l26 -26v0q6 -8 11 -13q31 -31 75 -31t75 31q39 38 30 93v0v36h100v-36v0q-2 -11 -2 -17q0 -45 31 -76t75 -31q55 0 87 45v-1l26 26l70 -70l-26 -26v0q-8 -6 -13 -11q-31 -31 -31 -75t31 -75.5
t75 -31.5q7 0 18 2v0h36v-100zM512 454q-68 0 -117 -49t-49 -117t49 -117t117 -49t117 49t49 117t-49 117t-117 49zM512 174q-47 0 -80.5 33.5t-33.5 80.5t33.5 80.5t80.5 33.5t80.5 -33.5t33.5 -80.5t-33.5 -80.5t-80.5 -33.5z" />
    <glyph glyph-name="check" unicode="&#xe671;" 
d="M512 812q-104 0 -199 -40.5t-163.5 -109t-109 -163.5t-40.5 -199t40.5 -199t109 -163.5t163.5 -109t199 -40.5t199 40.5t163.5 109t109 163.5t40.5 199t-40.5 199t-109 163.5t-163.5 109t-199 40.5zM440 40l-296 296l79 79l217 -216l361 361l79 -79z" />
    <glyph glyph-name="home1" unicode="&#xe63f;" 
d="M1024 222l-512 397l-512 -397v162l512 397l512 -397v-162zM896 236v-384h-256v256h-256v-256h-256v384l384 288z" />
    <glyph glyph-name="shop" unicode="&#xe64f;" 
d="M205 251h-205l529 512l495 -512h-186v-414h-196l1 347l-257 1v-348h-175z" />
    <glyph glyph-name="alert" unicode="&#xe67d;" 
d="M512 734q91 0 173.5 -35.5t142 -95t95 -142t35.5 -173.5t-35.5 -173.5t-95 -142t-142 -95t-173.5 -35.5t-173.5 35.5t-142 95t-95 142t-35.5 173.5t35.5 173.5t95 142t142 95t173.5 35.5v0zM894 288q0 104 -51 192t-139 139t-192 51t-192 -51t-139 -139t-51 -192t51 -192
t139 -139t192 -51t192 51t139 139t51 192zM512 32q20 0 34 14t14 34t-14 34t-34 14t-34 -14t-14 -34t14 -34t34 -14zM544 512v-288q0 -13 -9.5 -22.5t-22.5 -9.5t-22.5 9.5t-9.5 22.5v288q0 13 9.5 22.5t22.5 9.5t22.5 -9.5t9.5 -22.5z" />
    <glyph glyph-name="check1" unicode="&#xe7bd;" 
d="M940 593.5q-20 20.5 -49 20.5t-49 -21l-440 -440l-220 220q-20 21 -49 21t-49 -20.5t-20 -49t20 -48.5l269 -269l2 -2q21 -19 48.5 -18.5t47.5 20.5l489 489q20 20 20 48.5t-20 49z" />
    <glyph glyph-name="check2" unicode="&#xe633;" 
d="M926 686q-19 -12 -51 -33t-113.5 -83t-143.5 -120t-123.5 -130.5t-92 -114t-30.5 -43.5l-211 178l-86 -83l345 -343q14 25 39.5 67.5t99 153t139.5 196.5q51 67 115.5 137t103.5 107l39 37z" />
    <glyph glyph-name="config2" unicode="&#xe601;" 
d="M892 402q-13 50 -39 95l74 112l-106 106l-112 -74q-45 26 -95 39l-27 132h-150l-27 -132q-50 -13 -95 -39l-112 74l-106 -106l74 -112q-26 -45 -39 -95l-132 -27v-150l132 -27q13 -50 39 -95l-74 -112l106 -106l112 74q45 -26 95 -39l27 -132h150l27 132q50 13 95 39
l112 -74l106 106l-74 112q26 45 39 95l132 27v150l-132 27v0zM690 300q0 -74 -52 -126t-126 -52t-126 52t-52 126t52 126t126 52t126 -52t52 -126z" />
    <glyph glyph-name="check3" unicode="&#xe646;" 
d="M512 -91v0q106 0 196.5 52.5t143 142.5t52.5 197t-52.5 197t-143 142.5t-197 52.5t-196.5 -52.5t-142.5 -142.5t-52.5 -197t52.5 -197t142.5 -142.5t197 -52.5v0zM512 -147v0q-91 0 -174 35.5t-143 95.5t-95.5 143t-35.5 174t35.5 174t95.5 143t143 95.5t174 35.5
t174 -35.5t143 -95.5t95.5 -143t35.5 -174t-35.5 -174t-95.5 -143t-143 -95.5t-174 -35.5v0zM769 411l-290 -290v0q-10 -9 -24 -11t-25 5q-5 3 -8 6v0l-167 167q-12 12 -12 29t12 29t28.5 12t28.5 -12l138 -138l262 261q11 12 28 12t29 -12t12 -29t-12 -29v0z" />
    <glyph glyph-name="alert1" unicode="&#xe6eb;" 
d="M512 677q-106 0 -195.5 -52t-141.5 -141.5t-52 -195.5t52 -195.5t141.5 -141.5t195.5 -52t195.5 52t141.5 141.5t52 195.5t-52 195.5t-141.5 141.5t-195.5 52v0zM577 548l-18 -368h-94l-19 368h131zM510 5q-30 0 -48 19t-18 46q0 29 19 47.5t47 18.5q30 0 48 -18.5
t18 -47.5q0 -28 -18.5 -46.5t-47.5 -18.5v0z" />
    <glyph glyph-name="kebiao" unicode="&#xe61a;" 
d="M950 -201h-876q-26 0 -44.5 18.5t-18.5 44.5v751q0 26 18.5 44.5t44.5 18.5h125v78q0 20 13.5 33.5t33 13.5t33.5 -13.5t14 -33.5v-78h438v78q0 20 14 33.5t33.5 13.5t33 -13.5t13.5 -33.5v-78h125q26 0 44.5 -18.5t18.5 -44.5v-751q0 -26 -18.5 -44.5t-44.5 -18.5z
M919 582h-814v-94h814v94zM919 394h-814v-501h814v501zM362 200h-100v100h100v-100zM362 -1h-100v101h100v-101zM562 200h-100v100h100v-100zM562 -1h-100v101h100v-101zM762 200h-100v100h100v-100zM762 -1h-100v101h100v-101z" />
    <glyph glyph-name="dailijizhang" unicode="&#xe632;" 
d="M85 -43q-1 -10 6.5 -16t16.5 -2q78 34 212 93l-210 155q-21 -192 -25 -230v0zM131 247l241 -178l388 527l-241 178l-388 -527v0zM401 156l-26 19l19 26l26 -19l-19 -26v0zM699 561l-268 -364l-26 19l268 364l26 -19v0zM783 705l-167 123q-15 12 -34 9t-31 -18l-13 -19
l241 -178l14 19q11 15 8 34t-18 30v0zM372 -61h544v39h-544v-39v0zM516 166v-39h400v39h-400v0zM516 166z" />
    <glyph glyph-name="bae-staff" unicode="&#xe68f;" 
d="M393.5 786q-93.5 0 -156.5 -63t-63 -156t63 -156.5t156.5 -63.5t156.5 63.5t63 156.5t-63 156t-156.5 63zM759 355q32 32 49 77t17 91q0 104 -75.5 180t-180.5 76h-7q37 -28 73 -88q51 -17 84 -63t33 -105q0 -85 -73 -146l-51 -37l51 -29q87 -43 140.5 -130.5
t64.5 -198.5h73q-5 112 -59 211.5t-139 161.5zM752 -18h-702q22 155 121.5 260t229.5 105t229.5 -105t121.5 -260z" />
    <glyph glyph-name="alert2" unicode="&#xe683;" 
d="M800 205v211v96q0 113 -76 195.5t-188 92.5h-48q-111 -9 -187.5 -92t-76.5 -196v-96v-211l-96 -96v-82h768v82zM514 -128q49 0 89.5 26.5t61.5 69.5h-301q20 -43 60.5 -69.5t89.5 -26.5zM585 832v64h-144v-64q35 8 71 8t73 -8z" />
    <glyph glyph-name="iconinfor" unicode="&#xe778;" 
d="M512 810q-116 0 -214 -57t-155.5 -155t-57.5 -214t57.5 -214.5t155.5 -155.5t214 -57t214 57t155.5 155.5t57.5 214.5t-57.5 214t-155.5 155t-214 57zM555 125h-86v368h86v-368zM555 552h-85v85h85v-85z" />
    <glyph glyph-name="iconjizhang" unicode="&#xe602;" 
d="M602 76zM779 399h-381q-7 0 -11.5 5t-4.5 12t4.5 11.5t11.5 4.5h381q7 0 11.5 -4.5t4.5 -11.5t-4.5 -12t-11.5 -5v0zM779 399zM787 193h-397q-7 0 -12 4.5t-5 11.5t5 12t12 5h397q7 0 12 -5t5 -12t-5 -11.5t-12 -4.5v0zM787 232zM187 546h75q27 0 45.5 19t18.5 45
t-18.5 45t-45.5 19h-75q-27 0 -45.5 -19t-18.5 -45t18.5 -45t45.5 -19v0zM187 637h75q12 0 20 -8t8 -19t-8 -19t-20 -8h-75q-12 0 -20 8t-8 19t8 19t20 8v0zM187 637zM262 496h-75q-27 0 -45.5 -18.5t-18.5 -45t18.5 -45t45.5 -18.5h75q27 0 45.5 18.5t18.5 45t-18.5 45
t-45.5 18.5v0zM262 405h-75q-12 0 -20 8t-8 19.5t8 19.5t20 8h75q12 0 20 -8t8 -19.5t-8 -19.5t-20 -8v0zM262 405zM262 306h-75q-27 0 -45.5 -19t-18.5 -45.5t18.5 -45t45.5 -18.5h75q27 0 45.5 18.5t18.5 45t-18.5 45.5t-45.5 19v0zM262 215h-75q-12 0 -20 8t-8 19t8 19
t20 8h75q12 0 20 -8t8 -19t-8 -19t-20 -8v0zM262 215zM822 812h-583q-32 0 -54.5 -22.5t-22.5 -54.5v-57q-39 -11 -39 -70q0 -28 9 -45q8 -16 23 -23v-45q-15 -7 -23 -23q-9 -17 -9 -44t9 -45q8 -15 23 -22v-46q-15 -7 -23 -22q-9 -18 -9 -45q0 -32 6 -48q9 -25 33 -30v-57
q0 -32 22.5 -54.5t54.5 -22.5h583q31 0 53.5 22.5t22.5 54.5v622q0 32 -22.5 54.5t-53.5 22.5v0zM862 113q0 -17 -12 -29t-28 -12h-583q-17 0 -29 12t-12 29v79h-7q-4 13 -18 13q-7 0 -10 7q-4 10 -4 36q0 34 17 36l15 2v104l-15 2q-17 2 -17 36t17 36l15 2v104l-15 2
q-17 2 -17 36q0 17 4 25.5t7.5 9.5t9.5 1h21v13h-3v14v64q0 17 12 29t29 12h583q16 0 28 -12t12 -29v-622v0zM862 113zM779 603h-381q-7 0 -11.5 4.5t-4.5 11.5t4.5 11.5t11.5 4.5h381q7 0 11.5 -4.5t4.5 -11.5t-4.5 -11.5t-11.5 -4.5v0zM779 603z" />
    <glyph glyph-name="alert3" unicode="&#xe6bf;" 
d="M137 77l102 205v273q0 113 80 193t193 80t193 -80t80 -193v-273l102 -205h-750v0zM512 -60q-33 0 -59 19t-37 50h192q-11 -31 -37 -50t-59 -19v0zM853 282v273q0 92 -45.5 171t-124 124.5t-171.5 45.5t-171.5 -45.5t-124 -124.5t-45.5 -171v-273l-137 -273h311
q12 -59 59 -98t108 -39t108 39t59 98h311l-137 273v0z" />
    <glyph glyph-name="svginfor" unicode="&#xe67b;" 
d="M512 -8v0q162 0 277 115t115 277t-115 277t-277 115t-277 -115t-115 -277t115 -277t277 -115v0zM512 -64q-122 0 -225 60t-163 163t-60 225t60 225t163 163t225 60t225 -60t163 -163t60 -225t-60 -225t-163 -163t-225 -60zM512 566q17 0 29.5 12.5t12.5 29.5t-12.5 29.5
t-29.5 12.5t-29.5 -12.5t-12.5 -29.5t12.5 -29.5t29.5 -12.5zM470 440q0 17 12.5 29.5t29.5 12.5t29.5 -12.5t12.5 -29.5v-308q0 -17 -12.5 -29.5t-29.5 -12.5t-29.5 12.5t-12.5 29.5v308z" />
    <glyph glyph-name="tongji" unicode="&#xe742;" 
d="M95 4q-12 0 -20.5 8.5t-8.5 20.5v706q0 12 8.5 20.5t20.5 8.5t20.5 -8.5t8.5 -20.5v-676h806q12 0 20.5 -8.5t8.5 -21t-8.5 -21t-20.5 -8.5h-835v0zM190 163q-10 0 -18 5q-9 8 -11 20t5 22l193 257q9 12 23 12q9 0 17 -5l173 -117l305 243q8 6 18 6q14 0 23 -11
q8 -9 6.5 -21t-10.5 -20l-322 -256q-8 -7 -19 -7q-9 0 -16 5l-168 113l-176 -235q-8 -11 -23 -11v0zM190 163z" />
    <glyph glyph-name="people" unicode="&#xe617;" 
d="M323 787q-39 0 -67 -27.5t-28 -66.5t28 -67t67 -28t66.5 28t27.5 67t-27.5 66.5t-66.5 27.5zM322.5 650q-17.5 0 -30 12.5t-12.5 30.5t12.5 30.5t30 12.5t30 -12.5t12.5 -30.5t-12.5 -30.5t-30 -12.5zM628 787q-39 0 -67 -27.5t-28 -66.5t28 -67t67 -28t66.5 28t27.5 67
t-27.5 66.5t-66.5 27.5zM628 650q-18 0 -30.5 12.5t-12.5 30.5t12.5 30.5t30.5 12.5t30.5 -12.5t12.5 -30.5t-12.5 -30.5t-30.5 -12.5zM323 526h-225v-52h199v-144l-162 -339l47 -23l164 344q3 6 3 12v176q0 10 -8 18t-18 8zM422 301v-52h48v-263h52v315h-100zM727 528h186
v-52h-186v52zM727 301v-52h46v-263h52v315h-98zM628 528h-206v-52h180v-150l-8 -16v-120l57 118l3 6v188q0 11 -7.5 18.5t-18.5 7.5z" />
    <glyph glyph-name="star2" unicode="&#xe62e;" horiz-adv-x="6144" 
d="M512 46l316 -174l-60 370l256 263l-353 53l-159 338l-159 -338l-353 -53l256 -263l-60 -370zM1792 46l316 -174l-60 370l256 263l-353 53l-159 338l-159 -338l-353 -53l256 -263l-60 -370zM3072 816l128 -272l9 -17l18 -3l289 -44l-210 -215l-12 -12l3 -17l50 -301
l-258 142l-17 8l-17 -8l-254 -142l49 301l4 17l-12 12l-210 215l288 44l19 3l8 17zM3072 896l-159 -338l-353 -53l256 -263l-60 -370l316 174l316 -174l-60 370l256 263l-353 55zM4352 816l128 -272l9 -17l18 -3l289 -44l-210 -215l-12 -12l3 -17l50 -301l-258 142l-17 8
l-17 -8l-254 -142l49 301l4 17l-12 12l-210 215l288 44l19 3l8 17zM4352 896l-159 -338l-353 -53l256 -263l-60 -370l316 174l316 -174l-60 370l256 263l-353 55zM5632 816l128 -272l9 -17l18 -3l289 -44l-210 -215l-12 -12l3 -17l50 -301l-258 142l-17 8l-17 -8l-254 -142
l49 301l4 17l-12 12l-210 215l288 44l19 3l8 17zM5632 896l-159 -338l-353 -53l256 -263l-60 -370l316 174l316 -174l-60 370l256 263l-353 55z" />
    <glyph glyph-name="customer" unicode="&#xe67f;" 
d="M73 54v1q0 120 84.5 205.5t204.5 87.5h0.5h1.5h1.5h2.5q121 -1 206 -86.5t85 -206.5zM217 568q0 60 43 103t103.5 43t103.5 -43t43 -103t-42 -102.5t-101 -44.5l-1 1l-1.5 -0.5t-2.5 -0.5q-60 1 -102.5 43.5t-42.5 103.5zM500 396q39 31 61 75.5t22 96.5q0 91 -64 155
t-155 64t-155.5 -64t-64.5 -155q0 -52 22.5 -97.5t62.5 -76.5q-102 -41 -165.5 -133t-63.5 -206v-38q0 -15 10.5 -25.5t26.5 -10.5h659q15 0 25.5 10.5t10.5 25.5v38q0 115 -64 207.5t-168 133.5zM1024 603v0q0 -15 -10.5 -25.5t-26.5 -10.5h-256q-15 0 -26 10.5t-11 25.5
t11 26t26 11h256q16 0 26.5 -11t10.5 -26zM1024 420v0q0 -15 -10.5 -26t-26.5 -11h-256q-15 0 -26 11t-11 26t11 26t26 11h256q16 0 26.5 -11t10.5 -26zM1024 237v0q0 -15 -10.5 -26t-26.5 -11h-145q-15 0 -25.5 11t-10.5 26t10.5 26t25.5 11h145q16 0 26.5 -11t10.5 -26v0z
" />
    <glyph glyph-name="fangke" unicode="&#xe622;" 
d="M345 742q76 0 130 -54t54 -130t-54 -130t-130 -54t-130 54t-54 130t54 130t130 54zM589 24h-1h-486q-21 0 -36 15t-15 36q0 122 86 208.5t208 86.5q120 0 206 -84.5t89 -204.5v-6q0 -21 -15 -36t-36 -15v0zM589 24zM731.5 678q62.5 0 106.5 -44.5t44 -107t-44 -106.5
t-106.5 -44t-107 44t-44.5 106.5t44.5 107t107 44.5zM550 290q34 39 81 60.5t100 21.5q99 0 169.5 -69t72.5 -168v-5q0 -17 -12 -29.5t-30 -12.5v0h-288z" />
    <glyph glyph-name="laofangke" unicode="&#xe634;" 
d="M732 259v0q11 13 7.5 29.5t-18.5 24.5q-31 17 -64 28q67 41 105.5 109t38.5 146q0 124 -87.5 211t-210.5 87t-210.5 -87t-87.5 -211q0 -82 42 -152q39 -64 102 -103q-135 -48 -218.5 -164.5t-85.5 -260.5q0 -15 10.5 -25.5t26 -10.5t26 10.5t10.5 25.5q2 103 54 190.5
t140 138t191 50.5q97 0 183 -46q12 -7 25 -4t21 14zM279 596.5q0 92.5 66 158t158.5 65.5t158 -65.5t65.5 -158t-65.5 -158t-158 -65.5t-158.5 65.5t-66 158zM807 202v-20h27q13 0 19.5 -9.5t2.5 -20.5l-87 -193l-101 192q-6 11 1 21t20 10h38v20h-207v-20h5q37 0 53 -30
l146 -278h75l123 275q7 15 22 24t32 9h10v20h-179z" />
    <glyph glyph-name="qiantai" unicode="&#xe63e;" 
d="M832 768h-640q-53 0 -90.5 -37.5t-37.5 -90.5v-288v-64v-32q0 -53 37.5 -90.5t90.5 -37.5h288v-128h-192q-13 0 -22.5 -9.5t-9.5 -22.5t9.5 -22.5t22.5 -9.5h448q13 0 22.5 9.5t9.5 22.5t-9.5 22.5t-22.5 9.5h-192v128h288q53 0 90.5 37.5t37.5 90.5v32v64v288
q0 53 -37.5 90.5t-90.5 37.5zM896 256q0 -26 -19 -45t-45 -19h-640q-26 0 -45 19t-19 45v32h768v-32zM128 352v288q0 26 19 45t45 19h640q26 0 45 -19t19 -45v-288h-768z" />
    <glyph glyph-name="star1" unicode="&#xe627;" horiz-adv-x="4876" 
d="M4469.5 753q14.5 0 20.5 -13l91 -202q14 -28 45 -33l209 -37q14 -2 19 -16q4 -13 -6 -24l-150 -130q-23 -22 -17 -54l35 -208q1 -8 0 -12q-1 -3 -5 -7q-6 -4 -14 -4q-5 0 -10 3l-189 103q-14 7 -29 7t-28 -7v0v-1l-181 -103q-5 -2 -11 -2q-7 0 -13 4q-14 11 -13 18
l43 213v1q5 31 -17 54h-1l-158 126q-9 10 -5 23q5 14 19 16v0l205 37q31 5 45 33v0l1 1l94 201q6 13 20.5 13zM4469 774q-27 0 -39 -25l-94 -202q-9 -19 -30 -22l-205 -36q-27 -4 -35.5 -30t11.5 -46l157 -125q15 -15 12 -36l-43 -213q-4 -20 21 -38q11 -9 25 -9q11 0 21 6
l181 103q9 4 18.5 4t18.5 -4l189 -103q10 -6 20 -6q14 0 26 9q18 13 13 38l-35 209q-4 21 11 36l150 129q20 20 11.5 46t-35.5 30l-209 36q-20 3 -30 22l-91 202q-12 25 -39 25v0zM3453.5 753q14.5 0 20.5 -13l91 -202q14 -28 45 -33l209 -37q14 -2 19 -16q4 -13 -6 -24
l-150 -130q-22 -22 -17 -54l35 -208q2 -8 0 -12q-1 -3 -5 -7q-6 -4 -14 -4q-5 0 -10 3l-189 103q-13 7 -28 7t-29 -7v0v-1l-181 -103q-5 -2 -10 -2q-8 0 -14 4q-14 11 -13 18l43 213v1q5 31 -17 54h-1l-157 126q-10 10 -6 23q5 14 19 16v0l205 37q32 5 46 33v0v1l94 201
q6 13 20.5 13zM3454 774q-28 0 -39 -25l-95 -202q-9 -19 -30 -22l-205 -36q-27 -4 -35.5 -30t11.5 -46l157 -125q16 -15 12 -36l-43 -213q-4 -20 21 -38q11 -9 26 -9q10 0 20 6l181 103q9 4 18.5 4t18.5 -4l189 -103q10 -6 20 -6q15 0 26 9q18 13 13 38l-35 209q-3 21 12 36
l149 129q20 20 11.5 46t-35.5 30l-209 36q-20 3 -30 22l-90 202q-12 25 -39 25v0zM2437.5 753q14.5 0 20.5 -13l91 -202q14 -28 45 -33l209 -37q15 -2 19 -16q4 -13 -6 -24l-150 -130q-22 -22 -17 -54l35 -208q2 -8 0 -12q-1 -3 -5 -7q-6 -4 -13 -4q-6 0 -11 3l-189 103
q-13 7 -28 7t-29 -7v0v-1l-181 -103q-5 -2 -10 -2q-8 0 -14 4q-14 11 -13 18l43 213v1q6 31 -17 54h-1l-157 126q-10 10 -6 23q5 14 19 16v0l205 37q32 5 46 33v0v1l94 201q6 13 20.5 13zM2438 774q-27 0 -39 -25l-95 -202q-9 -19 -30 -22l-205 -36q-27 -4 -35 -30t11 -46
l158 -125q15 -15 11 -36l-43 -213q-4 -20 21 -38q12 -9 26 -9q10 0 20 6l181 103q9 4 19 4t18 -4l189 -103q10 -6 21 -6q14 0 25 9q18 13 14 38l-36 209q-3 21 12 36l149 129q20 20 11.5 46t-35.5 30l-208 36q-21 3 -31 22l-90 202q-12 25 -39 25v0zM1422 753q14 0 20 -13
l91 -202q14 -28 45 -33l210 -37q14 -2 18 -16q5 -13 -5 -24l-151 -130q-22 -22 -17 -54l36 -208q1 -8 0 -12q-1 -3 -6 -7q-6 -4 -13 -4q-6 0 -11 3l-189 103q-13 7 -28 7t-28 -7h-1v-1l-181 -103q-5 -2 -10 -2q-8 0 -14 4q-14 11 -13 18l43 213v1q6 31 -17 54h-1l-157 126
q-10 10 -6 23q5 14 19 16v0l206 37q31 5 45 33v0v1l94 201q7 13 21 13zM1422 774q-27 0 -39 -25l-95 -202q-9 -19 -30 -22l-205 -36q-27 -4 -35 -30t11 -46l158 -125q15 -15 11 -36l-43 -213q-3 -20 21 -38q12 -9 26 -9q11 0 20 6l181 103q9 4 19 4t18 -4l189 -103
q10 -6 21 -6q14 0 25 9q18 13 14 38l-36 209q-3 21 12 36l150 129q19 20 10.5 46t-35.5 30l-208 36q-21 3 -30 22l-91 202q-12 25 -39 25v0zM799 414l-150 -130q-15 -15 -12 -36l36 -209q4 -25 -14 -38q-11 -9 -25 -9q-11 0 -20 6l-189 103q-19 10 -38 0l-181 -103
q-24 -13 -46 3q-24 18 -21 38l43 213q4 21 -11 36l-158 125q-19 20 -11 46t35 30l205 36q21 3 30 22l95 202q12 25 39 25t39 -25l91 -202q9 -19 30 -22l209 -36q26 -4 34.5 -30t-10.5 -46v0v1z" />
    <glyph glyph-name="star4" unicode="&#xe62a;" horiz-adv-x="4876" 
d="M4469.5 753q14.5 0 20.5 -13l91 -202q14 -28 45 -33l209 -37q14 -2 19 -16q4 -13 -6 -24l-150 -130q-23 -22 -17 -54l35 -208q1 -8 0 -12q-1 -3 -5 -7q-6 -4 -14 -4q-5 0 -10 3l-189 103q-14 7 -29 7t-28 -7v0v-1l-181 -103q-5 -2 -11 -2q-7 0 -13 4q-14 11 -13 18
l43 213v1q5 31 -17 54h-1l-158 126q-9 10 -5 23q5 14 19 16v0l205 37q31 5 45 33v0l1 1l94 201q6 13 20.5 13zM4469 774q-27 0 -39 -25l-94 -202q-9 -19 -30 -22l-205 -36q-27 -4 -35.5 -30t11.5 -46l157 -125q15 -15 12 -36l-43 -213q-4 -20 21 -38q11 -9 25 -9q11 0 21 6
l181 103q9 4 18.5 4t18.5 -4l189 -103q10 -6 20 -6q14 0 26 9q18 13 13 38l-35 209q-4 21 11 36l150 129q20 20 11.5 46t-35.5 30l-209 36q-20 3 -30 22l-91 202q-12 25 -39 25v0zM799 414l-150 -130q-15 -15 -12 -36l36 -209q4 -25 -14 -38q-11 -9 -25 -9q-11 0 -20 6
l-189 103q-19 10 -38 0l-181 -103q-24 -13 -46 3q-24 18 -21 38l43 213q4 21 -11 36l-158 125q-19 20 -11 46t35 30l205 36q21 3 30 22l95 202q12 25 39 25t39 -25l91 -202q9 -19 30 -22l209 -36q26 -4 34.5 -30t-10.5 -46v0v1zM1815 414l-150 -130q-15 -15 -12 -36l36 -209
q4 -25 -14 -38q-11 -9 -25 -9q-11 0 -21 6l-189 103q-18 10 -37 0l-181 -103q-24 -13 -46 3q-24 18 -21 38l43 213q4 21 -11 36l-158 125q-19 20 -11 46t35 30l205 36q21 3 30 22l95 202q12 25 39 25t39 -25l91 -202q9 -19 30 -22l208 -36q27 -4 35.5 -30t-10.5 -46v0v1z
M2830 414l-149 -130q-15 -15 -12 -36l36 -209q4 -25 -14 -38q-11 -9 -25 -9q-11 0 -21 6l-189 103q-18 10 -37 0l-181 -103q-24 -13 -46 3q-25 18 -21 38l43 213q4 21 -11 36l-158 126q-19 19 -11 45t35 30l205 36q21 3 30 22l95 202q12 25 39 25t39 -25l90 -202
q10 -19 31 -22l208 -36q27 -4 35.5 -30t-11.5 -46v0v1zM3846 414l-149 -130q-15 -15 -12 -36l35 -209q5 -25 -13 -38q-11 -9 -26 -9q-10 0 -20 6l-189 103q-18 10 -37 0l-181 -103q-24 -13 -46 3q-25 18 -21 38l43 213q4 21 -12 36l-157 125q-20 20 -11.5 46t35.5 30l205 36
q21 3 30 22l95 202q11 25 38.5 25t39.5 -25l90 -202q10 -19 30 -22l209 -36q27 -4 35.5 -30t-11.5 -46v0v1z" />
    <glyph glyph-name="star5" unicode="&#xe62b;" horiz-adv-x="4876" 
d="M799 414l-150 -130q-15 -15 -12 -36l36 -209q4 -25 -14 -38q-11 -9 -25 -9q-11 0 -20 6l-189 103q-19 10 -38 0l-181 -103q-24 -13 -46 3q-24 18 -21 38l43 213q4 21 -11 36l-158 125q-19 20 -11 46t35 30l205 36q21 3 30 22l95 202q12 25 39 25t39 -25l91 -202
q9 -19 30 -22l209 -36q26 -4 34.5 -30t-10.5 -46v0v1zM1815 414l-150 -130q-15 -15 -12 -36l36 -209q4 -25 -14 -38q-11 -9 -25 -9q-11 0 -21 6l-189 103q-18 10 -37 0l-181 -103q-24 -13 -46 3q-24 18 -21 38l43 213q4 21 -11 36l-158 125q-19 20 -11 46t35 30l205 36
q21 3 30 22l95 202q12 25 39 25t39 -25l91 -202q9 -19 30 -22l208 -36q27 -4 35.5 -30t-10.5 -46v0v1zM2830 414l-149 -130q-15 -15 -12 -36l36 -209q4 -25 -14 -38q-11 -9 -25 -9q-11 0 -21 6l-189 103q-18 10 -37 0l-181 -103q-24 -13 -46 3q-25 18 -21 38l43 213
q4 21 -11 36l-158 126q-19 19 -11 45t35 30l205 36q21 3 30 22l95 202q12 25 39 25t39 -25l90 -202q10 -19 31 -22l208 -36q27 -4 35.5 -30t-11.5 -46v0v1zM3846 414l-149 -130q-15 -15 -12 -36l35 -209q5 -25 -13 -38q-11 -9 -26 -9q-10 0 -20 6l-189 103q-18 10 -37 0
l-181 -103q-24 -13 -46 3q-25 18 -21 38l43 213q4 21 -12 36l-157 125q-20 20 -11.5 46t35.5 30l205 36q21 3 30 22l95 202q11 25 38.5 25t39.5 -25l90 -202q10 -19 30 -22l209 -36q27 -4 35.5 -30t-11.5 -46v0v1zM4862 414l-150 -130q-15 -15 -11 -36l35 -209
q5 -25 -13 -38q-11 -9 -26 -9q-10 0 -20 6l-189 103q-19 10 -37 0l-181 -103q-24 -13 -46 3q-25 18 -21 38l43 213q3 21 -12 36l-157 125q-20 20 -11.5 46t35.5 30l205 36q21 3 30 22l94 202q12 25 39 25t39 -25l91 -202q10 -19 30 -22l209 -36q27 -4 35.5 -30t-11.5 -46v0
v1z" />
    <glyph glyph-name="loading" unicode="&#xe606;" horiz-adv-x="1280" 
d="M999 26q116 0 198.5 82.5t82.5 198.5q0 101 -63.5 178.5t-161.5 97.5l-5 -25h25v5q0 91 -55 168t-149 121t-205 44t-205.5 -44t-149.5 -121t-55 -168l26 26q-117 0 -199.5 -82.5t-82.5 -199t82.5 -199t199.5 -82.5h153q11 0 18.5 7.5t7.5 18t-7.5 18t-18.5 7.5h-153
q-96 0 -163.5 67.5t-67.5 163t67.5 163t163.5 67.5h25v25q0 76 48 141t130.5 103t180 38t180.5 -38t130.5 -103t47.5 -141v-4v-22l20 -4q81 -16 133 -79.5t52 -146.5q0 -95 -67.5 -162.5t-162.5 -67.5h-149q-11 0 -18.5 -7.5t-7.5 -18t7.5 -18t18.5 -7.5h149v0zM666 399
v-501q0 -11 -7.5 -18.5t-18.5 -7.5t-18.5 7.5t-7.5 18.5v501l-135 -136q-8 -7 -18.5 -7t-18 7.5t-7.5 18t8 18.5l179 179q7 7 18 7t18 -7l179 -179q8 -8 8 -18.5t-7.5 -18t-18 -7.5t-18.5 7zM660 758q-11 -1 -17.5 -9t-5.5 -19t9 -17.5t18 -5.5q47 4 89.5 -11t72.5 -45
q8 -8 18.5 -8t18 7.5t7.5 18t-7 18.5q-38 38 -91.5 57t-111.5 14zM918 623q-6 9 -16.5 11t-19 -3.5t-11 -16t3.5 -19.5q14 -21 20 -45q2 -10 11.5 -15.5t19.5 -3t15.5 11.5t3.5 20q-9 32 -27 60z" />
    <glyph glyph-name="laofangke1" unicode="&#xe604;" 
d="M423 304q114 0 195 81t81 195t-81 194.5t-195 80.5t-194.5 -80.5t-80.5 -194.5t80.5 -195t194.5 -81zM423 773q80 0 137 -56.5t57 -136.5t-57 -137t-137 -57t-136.5 57t-56.5 137t56.5 136.5t136.5 56.5zM786 101q-39 59 -95 103q-56 45 -124 69q-69 24 -143.5 24
t-144.5 -24q-68 -24 -124 -69q-56 -44 -95 -103q-39 -60 -57 -130q-4 -17 4.5 -31.5t25 -18.5t31 4.5t18.5 25.5q30 117 125 190.5t216 73.5t216 -73.5t125 -190.5q3 -14 14.5 -22.5t25.5 -8.5q5 0 10 1q16 4 24.5 18.5t4.5 31.5q-17 70 -57 130zM996.5 472.5
q-15.5 6.5 -31 0t-22.5 -22.5l-69 -174l-72 174q-6 16 -22 22.5t-31.5 0t-22 -22t-0.5 -31.5l110 -268q11 -25 38 -25v0q28 0 38 26l107 267q7 16 0 31.5t-22.5 22z" />
    <glyph glyph-name="sijiao" unicode="&#xe615;" 
d="M910 -111h-796q-26 0 -39.5 19.5t-3.5 44.5l90 225q8 19 26 31t38 13h87q6 52 33 262q3 22 20 37t39 15h224q21 0 38.5 -15t20.5 -36l41 -278v-4q0 -11 -8 -19.5t-20 -8.5q-9 0 -17.5 7t-9.5 17l-41 278q-1 3 -4 3h-224q-3 0 -4 -3q-33 -256 -34 -282v-1q0 -12 -8.5 -20
t-19.5 -8h-113q-3 0 -7 -3t-5 -6l-85 -213h763l-108 207q-4 7 -4 14q0 11 8.5 19t19.5 8q17 0 25 -15l117 -223q13 -24 0.5 -44.5t-39.5 -20.5v0zM537 -34h-38q-22 0 -39 16t-18 38l-20 323q-1 1 -1 2q0 11 8.5 19.5t19.5 8.5t19.5 -8t8.5 -18l21 -323q0 -2 1 -2h38q2 0 3 3
l30 322q1 11 9.5 18.5t18.5 7.5h3q10 -1 17.5 -9.5t7.5 -18.5v-3l-31 -323q-2 -22 -19 -37.5t-39 -15.5v0zM512.5 553q-68.5 0 -116.5 48.5t-48 117t48 116.5t116.5 48t117 -48t48.5 -116.5t-48.5 -117t-117 -48.5zM512.5 832q-47.5 0 -80.5 -33.5t-33 -80.5t33 -80.5
t80.5 -33.5t81 33.5t33.5 80.5t-33.5 80.5t-81 33.5z" />
    <glyph glyph-name="caiwu" unicode="&#xe612;" 
d="M512 826q-90 0 -172.5 -35t-141.5 -94t-94 -141t-35 -172.5t35 -172.5t94 -141t141.5 -94t172.5 -35t172 35t141 94t94 141t35 172t-35 172.5t-94 141.5t-141 94t-172 35zM680 385v-63h-132v-36h132v-59h-132v-110h-71v110h-133v59h133v36h-133v63h105l-131 241h79
l95 -178q11 -21 19 -40q12 26 21 43l90 175h83l-130 -241h105zM680 385z" />
    <glyph glyph-name="desk" unicode="&#xe649;" horiz-adv-x="1194" 
d="M1081 896h-967v0q-47 0 -80.5 -33.5t-33.5 -80.5v-569q0 -47 33.5 -80t80.5 -33h398v-171h-316q-11 0 -18 -8.5t-7 -20t7 -20t18 -8.5h803q10 0 17.5 8.5t7.5 20t-7.5 20t-17.5 8.5h-316v171h398v0q47 0 80.5 33t33.5 80v569q0 47 -33.5 80.5t-80.5 33.5zM1081 213h-455
v-57h-57v57h-455h967zM1081 270h-967v512h967v-512z" />
    <glyph glyph-name="fangketou" unicode="&#xe61c;" 
d="M512 298q114 0 194.5 81t80.5 194.5t-80.5 194.5t-194.5 81t-194.5 -81t-80.5 -194.5t80.5 -194.5t194.5 -81zM512 767q80 0 137 -57t57 -136.5t-57 -136.5t-137 -57t-137 57t-57 136.5t57 136.5t137 57zM875 95q-39 60 -94 103q-58 46 -124 68q-72 25 -144 25
q-77 0 -144 -25q-69 -24 -124 -67.5t-95 -103.5q-39 -59 -57 -130q-4 -16 4.5 -31t25 -19t31 5t18.5 25q30 117 125 191t215.5 74t216 -74t125.5 -191q3 -14 14.5 -22.5t25.5 -8.5q2 0 10 1q16 4 25 19t5 31q-22 72 -59 130z" />
    <glyph glyph-name="yuangong" unicode="&#xe60b;" 
d="M512 432q90 0 153.5 63.5t63.5 153.5t-63.5 153.5t-153.5 63.5t-153.5 -63.5t-63.5 -153.5q0 -87 64 -152t153 -65zM512 408q-99 0 -170 71t-71 170t71 170t170 71t170 -71t71 -170q4 -98 -68.5 -169.5t-172.5 -71.5zM512 842q-77 0 -135 -55.5t-58 -131.5
q0 -78 56.5 -135.5t136.5 -57.5q78 0 135.5 56.5t57.5 136.5q0 77 -56 132t-137 55zM512 -128q-84 0 -154 14t-110 33t-68 40t-37.5 34.5t-9.5 17.5q0 3 -3.5 6t-3.5 6q0 103 54.5 195t144.5 142q10 8 21 5.5t15 -11.5q5 -9 1 -20.5t-13 -15.5q-76 -45 -123 -121t-51 -162
q7 -11 18 -21.5t38.5 -27t61.5 -29t90.5 -22t122.5 -9.5t123 9.5t92 22t63 29t40 27.5t19 21q0 90 -46.5 166t-127.5 117q-6 5 -8 15.5t2 20.5q4 9 15.5 12.5t20.5 -0.5q90 -50 144.5 -142t54.5 -195q0 -12 -7 -12q0 -6 -10.5 -20.5t-38.5 -36t-68.5 -41t-109.5 -33.5
t-152 -14zM873 23zM512 264q-48 0 -95 13.5t-69 26.5l-23 14q-9 5 -11.5 16t5.5 20q4 8 16 9.5t20 -3.5t21.5 -13t54.5 -21.5t81 -13.5t79 12t59 24l19 12q8 5 20 3.5t16 -9.5q5 -9 3.5 -20.5t-9.5 -15.5q-9 -6 -25 -15t-65 -24t-97 -15zM331 324q-96 -85 -108 -115
q-1 -2 -6.5 -15t-10 -24t-11 -28.5t-11 -31t-9.5 -30t-7.5 -28t-2.5 -21.5t4 -14q5 -10 37 -30t78 -40.5t106 -32.5t110 -6q347 44 361 121q6 32 -19 102.5t-65.5 131.5t-71.5 67q-29 5 -73 -4t-81 -20.5t-45 -11.5q-30 -6 -175 30z" />
    <glyph glyph-name="star3" unicode="&#xe605;" horiz-adv-x="4876" 
d="M4469.5 753q14.5 0 20.5 -13l91 -202q14 -28 45 -33l209 -37q14 -2 19 -16q4 -13 -6 -24l-150 -130q-23 -22 -17 -54l35 -208q1 -8 0 -12q-1 -3 -5 -7q-6 -4 -14 -4q-5 0 -10 3l-189 103q-14 7 -29 7t-28 -7v0v-1l-181 -103q-5 -2 -11 -2q-7 0 -13 4q-14 11 -13 18
l43 213v1q5 31 -17 54h-1l-158 126q-9 10 -5 23q5 14 19 16v0l205 37q31 5 45 33v0l1 1l94 201q6 13 20.5 13zM4469 774q-27 0 -39 -25l-94 -202q-9 -19 -30 -22l-205 -36q-27 -4 -35.5 -30t11.5 -46l157 -125q15 -15 12 -36l-43 -213q-4 -20 21 -38q11 -9 25 -9q11 0 21 6
l181 103q9 4 18.5 4t18.5 -4l189 -103q10 -6 20 -6q14 0 26 9q18 13 13 38l-35 209q-4 21 11 36l150 129q20 20 11.5 46t-35.5 30l-209 36q-20 3 -30 22l-91 202q-12 25 -39 25v0zM3453.5 753q14.5 0 20.5 -13l91 -202q14 -28 45 -33l209 -37q14 -2 19 -16q4 -13 -6 -24
l-150 -130q-22 -22 -17 -54l35 -208q2 -8 0 -12q-1 -3 -5 -7q-6 -4 -14 -4q-5 0 -10 3l-189 103q-13 7 -28 7t-29 -7v0v-1l-181 -103q-5 -2 -10 -2q-8 0 -14 4q-14 11 -13 18l43 213v1q5 31 -17 54h-1l-157 126q-10 10 -6 23q5 14 19 16v0l205 37q32 5 46 33v0v1l94 201
q6 13 20.5 13zM3454 774q-28 0 -39 -25l-95 -202q-9 -19 -30 -22l-205 -36q-27 -4 -35.5 -30t11.5 -46l157 -125q16 -15 12 -36l-43 -213q-4 -20 21 -38q11 -9 26 -9q10 0 20 6l181 103q9 4 18.5 4t18.5 -4l189 -103q10 -6 20 -6q15 0 26 9q18 13 13 38l-35 209q-3 21 12 36
l149 129q20 20 11.5 46t-35.5 30l-209 36q-20 3 -30 22l-90 202q-12 25 -39 25v0zM799 414l-150 -130q-15 -15 -12 -36l36 -209q4 -25 -14 -38q-11 -9 -25 -9q-11 0 -20 6l-189 103q-19 10 -38 0l-181 -103q-24 -13 -46 3q-24 18 -21 38l43 213q4 21 -11 36l-158 125
q-19 20 -11 46t35 30l205 36q21 3 30 22l95 202q12 25 39 25t39 -25l91 -202q9 -19 30 -22l209 -36q26 -4 34.5 -30t-10.5 -46v0v1zM1815 414l-150 -130q-15 -15 -12 -36l36 -209q4 -25 -14 -38q-11 -9 -25 -9q-11 0 -21 6l-189 103q-18 10 -37 0l-181 -103q-24 -13 -46 3
q-24 18 -21 38l43 213q4 21 -11 36l-158 125q-19 20 -11 46t35 30l205 36q21 3 30 22l95 202q12 25 39 25t39 -25l91 -202q9 -19 30 -22l208 -36q27 -4 35.5 -30t-10.5 -46v0v1zM2830 414l-149 -130q-15 -15 -12 -36l36 -209q4 -25 -14 -38q-11 -9 -25 -9q-11 0 -21 6
l-189 103q-18 10 -37 0l-181 -103q-24 -13 -46 3q-25 18 -21 38l43 213q4 21 -11 36l-158 126q-19 19 -11 45t35 30l205 36q21 3 30 22l95 202q12 25 39 25t39 -25l90 -202q10 -19 31 -22l208 -36q27 -4 35.5 -30t-11.5 -46v0v1z" />
    <glyph glyph-name="cog" unicode="&#xe600;" horiz-adv-x="1025" 
d="M649 384q0 61 -43 103.5t-103.5 42.5t-103 -42.5t-42.5 -103.5t42.5 -103.5t103 -42.5t103.5 42.5t43 103.5zM942 446v-127q0 -6 -4.5 -12.5t-11.5 -7.5l-106 -16q-11 -31 -22 -52q20 -29 61 -79q6 -7 6 -14.5t-6 -12.5q-15 -22 -56 -62.5t-54 -40.5q-7 0 -15 5l-79 62
q-25 -13 -52 -22q-9 -77 -16 -106q-4 -16 -21 -16h-127q-8 0 -14 5t-6 12l-16 105q-28 10 -52 22l-80 -62q-6 -5 -14 -5t-15 7q-72 65 -94 96q-4 5 -4 13q0 7 5 13q8 12 28.5 38t31.5 40q-16 29 -24 57l-104 15q-8 1 -12.5 7t-4.5 14v127q0 6 4.5 12.5t10.5 7.5l107 16
q8 26 22 53q-23 32 -61 79q-6 6 -6 13q0 6 5 13q15 21 56.5 62t54.5 41q7 0 14 -6l79 -61q25 13 52 22q9 77 17 106q4 16 20 16h127q8 0 14 -5t7 -12l16 -106q28 -9 51 -21l81 61q6 6 14 6t14 -6q74 -68 95 -97q4 -5 4 -13q0 -7 -5 -13q-8 -12 -29 -38t-31 -40
q15 -29 24 -56l104 -16q8 -1 12.5 -7t4.5 -14v0z" />
  </font>
</defs>
</svg>
